#!OML:ASF E:\Style3\Style3.ASF
:FULLY-SPECIFIED
:DEGREES
2798
root -1.70055 16.863 1.84429 -679.439 119.331 -701.129
lowerback 27.0792 -2.18115 -7.19126
upperback 6.34297 -4.1598 -1.33599
thorax -7.41564 -1.59332 3.93526
lowerneck -5.56201 3.94456 -1.43027
upperneck -17.7488 7.97114 9.85198
head -4.86067 4.07472 3.05128
rclavicle -5.24792e-014 8.90555e-014
rhumerus -70.4364 44.0881 -94.0428
rradius 121.931
rwrist -58.1385
rhand 29.0654 8.98575
rfingers 7.12502
rthumb 52.8647 -10.5919
lclavicle -5.24792e-014 8.90555e-014
lhumerus 52.0203 -33.9132 -309.8
lradius 57.8602
lwrist 429.848
lhand -8.6506 27.0556
lfingers 7.12502
lthumb 17.2827 56.3072
rfemur -47.5641 -16.7854 37.5823
rtibia 43.9175
rfoot -19.5793 -11.3784
rtoes -21.6093
lfemur -55.8067 -1.01932 0.564907
ltibia 42.2693
lfoot -10.2735 -7.91659
ltoes -26.2419
2799
root -1.69252 16.8432 1.8578 -679.984 119.953 -701.788
lowerback 27.2649 -2.07883 -7.14395
upperback 6.47061 -3.99366 -1.27991
thorax -7.38069 -1.50967 3.92358
lowerneck -5.57928 3.63907 -1.49051
upperneck -17.9487 7.6443 10.1596
head -4.91013 3.90963 3.16881
rclavicle 1.74931e-014 4.77083e-015
rhumerus -70.4288 44.1556 -94.1824
rradius 121.882
rwrist -58.0709
rhand 29.1924 8.76103
rfingers 7.12502
rthumb 52.9794 -10.7444
lclavicle 1.74931e-014 4.77083e-015
lhumerus 51.64 -33.2108 -310.48
lradius 52.2259
lwrist 428.088
lhand -8.77536 28.861
lfingers 7.12502
lthumb 17.1627 58.123
rfemur -47.9932 -17.3289 37.7891
rtibia 44.3792
rfoot -19.7151 -11.5545
rtoes -22.0051
lfemur -56.3634 -1.08424 0.44939
ltibia 42.5264
lfoot -10.0765 -8.57445
ltoes -24.8832
2800
root -1.68248 16.8262 1.87037 -680.376 120.586 -702.277
lowerback 27.4112 -2.00959 -6.97021
upperback 6.61838 -3.83073 -1.22799
thorax -7.31341 -1.43093 3.83351
lowerneck -5.70017 3.28905 -1.74774
upperneck -18.1159 7.28976 10.6704
head -4.94022 3.74028 3.38841
rclavicle -1.59028e-014 -4.13472e-014
rhumerus -70.4031 44.2955 -94.3912
rradius 121.878
rwrist -58.0445
rhand 29.0324 8.67217
rfingers 7.12502
rthumb 52.8349 -10.9242
lclavicle -1.59028e-014 -4.13472e-014
lhumerus 51.0902 -32.3202 -310.66
lradius 46.1762
lwrist 425.42
lhand -8.29499 28.1467
lfingers 7.12502
lthumb 17.625 57.3678
rfemur -48.3941 -17.7938 38.0482
rtibia 44.82
rfoot -19.8521 -11.7198
rtoes -22.1096
lfemur -56.9156 -1.16567 0.45558
ltibia 42.7828
lfoot -9.82051 -9.21244
ltoes -22.4747
2801
root -1.66773 16.8181 1.8818 -680.765 121.183 -702.711
lowerback 27.5587 -1.89204 -6.91727
upperback 6.7733 -3.63168 -1.10901
thorax -7.2272 -1.33429 3.87458
lowerneck -5.90897 2.98769 -1.9074
upperneck -18.156 6.9566 11.0387
head -4.90834 3.58578 3.54896
rclavicle 1.27222e-014 2.70347e-014
rhumerus -70.2936 44.4706 -94.4659
rradius 121.835
rwrist -58.0439
rhand 29.0715 8.60887
rfingers 7.12502
rthumb 52.8703 -10.9653
lclavicle 1.27222e-014 2.70347e-014
lhumerus 50.3688 -31.1525 -310.212
lradius 39.6971
lwrist 421.293
lhand -6.6808 26.5896
lfingers 7.12502
lthumb 19.1778 55.6641
rfemur -48.6745 -18.2266 38.2774
rtibia 45.2228
rfoot -20.12 -11.8691
rtoes -21.9769
lfemur -57.2887 -1.18115 0.37618
ltibia 42.9866
lfoot -9.80222 -9.73767
ltoes -21.7037
2802
root -1.65308 16.8016 1.89069 -681.119 121.65 -703.15
lowerback 27.6611 -1.73757 -7.01988
upperback 6.89708 -3.42761 -0.947542
thorax -7.14017 -1.23515 4.04869
lowerneck -6.03845 2.75537 -2.06646
upperneck -18.2107 6.69388 11.2735
head -4.89406 3.46589 3.66252
rclavicle 6.83819e-014 -3.02153e-014
rhumerus -70.1397 44.7723 -94.3105
rradius 121.863
rwrist -58.0271
rhand 29.2325 8.5182
rfingers 7.12502
rthumb 53.0156 -10.9643
lclavicle 6.83819e-014 -3.02153e-014
lhumerus 49.0802 -29.2205 -308.382
lradius 32.8155
lwrist 415.268
lhand -4.81603 26.4038
lfingers 7.12502
lthumb 20.9702 55.2902
rfemur -48.9973 -18.575 38.4103
rtibia 45.639
rfoot -20.3466 -11.9491
rtoes -21.8408
lfemur -57.6111 -1.17081 0.227165
ltibia 43.1432
lfoot -9.75612 -10.1645
ltoes -21.4357
2803
root -1.6383 16.7871 1.89884 -681.415 122.111 -703.573
lowerback 27.725 -1.62577 -7.07079
upperback 6.97703 -3.2701 -0.781318
thorax -7.08349 -1.15924 4.21322
lowerneck -6.08963 2.51669 -2.29758
upperneck -18.2505 6.41612 11.5228
head -4.88756 3.33647 3.79168
rclavicle 4.77083e-015 1.74931e-014
rhumerus -70.0822 45.2206 -94.1113
rradius 121.98
rwrist -57.9635
rhand 29.3384 8.65486
rfingers 7.12502
rthumb 53.1111 -10.7669
lclavicle 4.77083e-015 1.74931e-014
lhumerus 47.0396 -25.8258 -304.525
lradius 25.5866
lwrist 406.646
lhand -4.27527 26.3698
lfingers 7.12502
lthumb 21.4896 55.1978
rfemur -49.36 -18.8664 38.5442
rtibia 46.0417
rfoot -20.4592 -12.1803
rtoes -22.2474
lfemur -57.9642 -1.2704 0.175018
ltibia 43.2516
lfoot -9.69356 -10.5016
ltoes -21.2527
2804
root -1.62286 16.7748 1.90285 -681.724 122.484 -704.035
lowerback 27.7533 -1.5287 -7.11715
upperback 7.06705 -3.13115 -0.67543
thorax -7.0011 -1.09303 4.31208
lowerneck -6.17063 2.26783 -2.40013
upperneck -18.2686 6.10357 11.6886
head -4.8608 3.18645 3.87409
rclavicle -4.13472e-014 -7.15625e-014
rhumerus -69.9082 45.678 -93.9969
rradius 122.088
rwrist -57.9437
rhand 29.1562 8.77593
rfingers 7.12502
rthumb 52.9467 -10.7501
lclavicle -4.13472e-014 -7.15625e-014
lhumerus 44.2709 -19.0603 -297.406
lradius 18.2613
lwrist 392.982
lhand -3.58519 25.9717
lfingers 7.12502
lthumb 22.1523 54.7225
rfemur -49.7265 -19.1411 38.6023
rtibia 46.4422
rfoot -20.4859 -12.4008
rtoes -22.9139
lfemur -58.2551 -1.37187 0.0411425
ltibia 43.339
lfoot -9.7275 -10.7191
ltoes -21.3275
2805
root -1.60655 16.7656 1.90455 -682.048 122.723 -704.446
lowerback 27.7955 -1.37806 -7.20506
upperback 7.19919 -2.93014 -0.592527
thorax -6.88452 -0.99712 4.38899
lowerneck -6.19948 2.06375 -2.37376
upperneck -18.4453 5.84597 11.6574
head -4.88923 3.06107 3.86883
rclavicle -2.8625e-014 -1.59028e-015
rhumerus -69.56 45.984 -93.7874
rradius 122.148
rwrist -57.9519
rhand 29.1499 8.60139
rfingers 7.12502
rthumb 52.9411 -10.9282
lclavicle -2.8625e-014 -1.59028e-015
lhumerus 41.3371 -5.93849 -285.587
lradius 12.9367
lwrist 371.433
lhand -3.62504 25.5084
lfingers 7.12502
lthumb 22.114 54.2637
rfemur -49.9572 -19.3416 38.5529
rtibia 46.7922
rfoot -20.5259 -12.5267
rtoes -23.1206
lfemur -58.4167 -1.38102 -0.175615
ltibia 43.4153
lfoot -9.81133 -10.9731
ltoes -21.7953
2806
root -1.58969 16.7542 1.90542 -682.283 122.954 -704.728
lowerback 27.9649 -1.29439 -7.16202
upperback 7.25391 -2.80275 -0.533934
thorax -6.9196 -0.931108 4.39429
lowerneck -6.25787 1.93713 -2.34057
upperneck -18.5108 5.66821 11.5762
head -4.88371 2.97789 3.84401
rclavicle 2.22639e-014 4.92986e-014
rhumerus -69.0395 46.2546 -93.4481
rradius 122.094
rwrist -57.4324
rhand 29.9198 8.61537
rfingers 7.12502
rthumb 53.6348 -10.4666
lclavicle 2.22639e-014 4.92986e-014
lhumerus 41.3592 12.4325 -271.156
lradius 10.7293
lwrist 345.056
lhand -5.69899 25.207
lfingers 7.12502
lthumb 20.1217 54.1849
rfemur -50.0966 -19.4728 38.5347
rtibia 47.0861
rfoot -20.7372 -12.5932
rtoes -22.8443
lfemur -58.5337 -1.32047 -0.355963
ltibia 43.4728
lfoot -9.82374 -11.2614
ltoes -21.8706
2807
root -1.57217 16.7446 1.90225 -682.411 123.131 -704.965
lowerback 28.1248 -1.29855 -7.02967
upperback 7.25625 -2.77651 -0.520684
thorax -7.00577 -0.913256 4.33083
lowerneck -6.39254 1.84154 -2.29846
upperneck -18.4802 5.50565 11.4378
head -4.83602 2.90642 3.80004
rclavicle -1.59028e-015 -6.36111e-015
rhumerus -68.3805 46.5123 -93.0442
rradius 122.055
rwrist -56.5318
rhand 30.9773 8.4597
rfingers 7.12502
rthumb 54.5834 -9.97611
lclavicle -1.59028e-015 -6.36111e-015
lhumerus 45.1191 27.8088 -259.189
lradius 10.6099
lwrist 324.274
lhand -8.39679 26.1009
lfingers 7.12502
lthumb 17.527 55.3308
rfemur -50.2685 -19.5481 38.5255
rtibia 47.3214
rfoot -20.9728 -12.7124
rtoes -22.7741
lfemur -58.6672 -1.20999 -0.562637
ltibia 43.5126
lfoot -9.88677 -11.4719
ltoes -22.2105
2808
root -1.55317 16.7404 1.89457 -682.552 123.246 -705.242
lowerback 28.1731 -1.28172 -6.97273
upperback 7.33768 -2.71982 -0.451119
thorax -6.94317 -0.886925 4.35723
lowerneck -6.49665 1.71958 -2.31024
upperneck -18.6529 5.33417 11.261
head -4.85641 2.83367 3.75326
rclavicle 6.99722e-014 -5.56597e-014
rhumerus -67.6936 46.7727 -92.591
rradius 122.039
rwrist -56.0785
rhand 31.5588 8.30466
rfingers 7.12502
rthumb 55.1027 -9.75948
lclavicle 6.99722e-014 -5.56597e-014
lhumerus 49.8218 37.538 -251.234
lradius 10.9002
lwrist 312.848
lhand -11.9235 27.5516
lfingers 7.12502
lthumb 14.1307 57.051
rfemur -50.4171 -19.5995 38.451
rtibia 47.5108
rfoot -21.1601 -12.7671
rtoes -22.4717
lfemur -58.768 -1.18498 -0.756236
ltibia 43.5273
lfoot -9.94314 -11.6135
ltoes -22.4345
2809
root -1.53438 16.7407 1.88585 -682.881 123.332 -705.649
lowerback 28.3214 -1.22839 -7.05007
upperback 7.43315 -2.65095 -0.33051
thorax -6.90281 -0.851311 4.5169
lowerneck -6.54782 1.61838 -2.29569
upperneck -18.8926 5.18017 10.9723
head -4.90587 2.76933 3.66489
rclavicle 7.15625e-014 -1.145e-013
rhumerus -67.3205 47.1132 -92.3704
rradius 122.113
rwrist -56.1596
rhand 31.4153 8.28616
rfingers 7.12502
rthumb 54.9746 -9.87085
lclavicle 7.15625e-014 -1.145e-013
lhumerus 52.3932 43.0469 -248.381
lradius 10.9343
lwrist 309.907
lhand -17.1448 28.7824
lfingers 7.12502
lthumb 9.09559 58.5663
rfemur -50.4539 -19.6778 38.2533
rtibia 47.6696
rfoot -21.2536 -12.8977
rtoes -22.3946
lfemur -58.7986 -1.27267 -0.996374
ltibia 43.5598
lfoot -9.94453 -11.7192
ltoes -22.2569
2810
root -1.51498 16.7435 1.87549 -683.103 123.34 -705.954
lowerback 28.4278 -1.1885 -7.05544
upperback 7.50599 -2.58749 -0.275712
thorax -6.87581 -0.819027 4.56264
lowerneck -6.63711 1.52912 -2.24193
upperneck -19.043 5.04923 10.7885
head -4.92461 2.71304 3.60286
rclavicle -4.92986e-014 -3.18055e-014
rhumerus -67.0669 47.3452 -92.2581
rradius 122.22
rwrist -56.2528
rhand 31.3678 8.43814
rfingers 7.12502
rthumb 54.9322 -9.74943
lclavicle -4.92986e-014 -3.18055e-014
lhumerus 52.5877 46.4374 -249.596
lradius 10.4667
lwrist 311.671
lhand -22.1577 27.5735
lfingers 7.12502
lthumb 4.25647 57.5107
rfemur -50.4777 -19.7118 38.0691
rtibia 47.7919
rfoot -21.3754 -12.9379
rtoes -22.3622
lfemur -58.7795 -1.35097 -1.17454
ltibia 43.57
lfoot -9.998 -11.7606
ltoes -22.2746
2811
root -1.50121 16.7383 1.86033 -683.033 123.236 -706.089
lowerback 28.4045 -1.17669 -6.96068
upperback 7.53685 -2.53804 -0.249759
thorax -6.84024 -0.797785 4.51983
lowerneck -6.65669 1.47283 -2.09816
upperneck -19.2838 4.96726 10.5526
head -4.98485 2.67452 3.50639
rclavicle 9.22361e-014 3.97569e-014
rhumerus -66.7644 47.5655 -92.0788
rradius 122.363
rwrist -56.161
rhand 31.2973 8.63743
rfingers 7.12502
rthumb 54.8694 -9.59533
lclavicle 9.22361e-014 3.97569e-014
lhumerus 48.4478 46.4521 -257.087
lradius 9.35291
lwrist 318.617
lhand -25.6333 26.9389
lfingers 7.12502
lthumb 0.899937 56.9167
rfemur -50.6751 -19.6012 37.9492
rtibia 47.9068
rfoot -21.4079 -12.9794
rtoes -22.4393
lfemur -58.9218 -1.34129 -1.28367
ltibia 43.5858
lfoot -9.97742 -11.7124
ltoes -21.8071
